
<svg xmlns="http://www.w3.org/2000/svg" display="none">
  <symbol id="leaf">
    <svg viewBox="0 0 31 32" fill="inherit" xmlns="http://www.w3.org/2000/svg">
    <g clip-path="url(#a)"><path d="M28.34 2.77a.95.95 0 0 0-.9-.77h-.01c-4.94.03-16.95.92-21.8 8.38C3.12 14.26 2.9 19.29 5 25.34l.07.13a25.93 25.93 0 0 0-1.04 3.32c-.11.54.21 1.07.72 1.19l.2.02c.43 0 .81-.32.9-.79.03-.1 2.42-10.37 10.86-16.38.43-.3.55-.93.26-1.38a.9.9 0 0 0-1.3-.28c-4.79 3.4-7.74 8-9.47 11.65-1.24-4.57-.92-8.37.99-11.3 3.74-5.76 12.62-7.15 17.98-7.45C24 5.87 22.75 9.17 22.75 15c0 3.12-.83 5.52-2.47 7.14-2.62 2.6-6.88 2.83-10 2.58-.51-.04-.96.38-1 .93-.04.55.35 1.03.86 1.07.63.05 1.3.08 1.98.08 3.18 0 6.87-.66 9.43-3.2 2.04-2 3.07-4.9 3.07-8.6 0-9.1 3.22-11.1 3.23-11.1.4-.21.6-.68.5-1.13Z" fill="inherit"/></g><defs><clipPath id="a"><path fill="inherit" transform="translate(.5)" d="M0 0h30v32H0z"/></clipPath></defs>
    </svg>
  </symbol>

  <symbol id="tub">
  <svg viewBox="0 0 31 32" fill="inherit" xmlns="http://www.w3.org/2000/svg"><g clip-path="url(#a)" fill="inherit"><path d="M21.28 18.47c-1.71 0-3.1 1.48-3.1 3.3 0 1.83 1.4 3.3 3.1 3.3 1.7 0 3.08-1.47 3.08-3.3 0-1.82-1.38-3.3-3.08-3.3Zm0 5.02c-.89 0-1.6-.77-1.6-1.71 0-.95.71-1.72 1.6-1.72.88 0 1.6.77 1.6 1.72 0 .94-.72 1.7-1.6 1.7ZM12.1-.01c-1.75 0-3.18 1.52-3.18 3.4 0 1.89 1.43 3.41 3.19 3.41s3.18-1.52 3.18-3.4c0-1.89-1.42-3.41-3.18-3.41Zm0 5.48c-1.06 0-1.93-.93-1.93-2.07 0-1.15.87-2.07 1.94-2.07 1.07 0 1.93.92 1.93 2.07 0 1.14-.86 2.07-1.93 2.07ZM8.73 17.61c-1.3 0-2.34 1.12-2.34 2.5 0 1.39 1.04 2.5 2.34 2.5 1.3 0 2.34-1.11 2.34-2.5 0-1.38-1.05-2.5-2.34-2.5ZM8.5 19.5c-.46 0 1.16 1.1 1.16.61 0-.49-1.62.39-1.16.39.46 0 1.06-.88 1.06-.39 0 .5-.6-.61-1.06-.61ZM19 9.76s3.04-.84 6.18 1.5c.9.76 1.76 1.33 1.15 2.12-.34.34-.64.66-1.72-.53A6.92 6.92 0 0 0 19 11.41c-1.13.24-1.96.55-3.56 2.15a8.27 8.27 0 0 1-6.5 2.5c-2.52-.24-3.84-1.27-5.24-2.55-.3-.42-.3-.87-.12-1.13.17-.26.83-.52 1.2-.13.37.4 2.1 1.97 3.82 2.07 1.72.1 3.44.21 5.74-1.96 2.3-2.18 3.46-2.34 4.66-2.6Z"/><mask id="b"><path d="M29.15 26.82V8.16c0-.58-.38-.65-.53-.66h-.5c-.5 0-.54.56-.54.74v18.6a2.68 2.68 0 0 1-.82 1.89c-.81.7-1.62.6-1.62.6s-20.18 0-20.66-.03a2.3 2.3 0 0 1-1.6-1c-.57-.8-.46-1.85-.46-1.85V8.3c0-.83-.67-.8-.67-.8h-.3c-.54 0-.6.58-.6.77v18.54c0 1.33.46 2.4 1.55 3.33 1.1.94 2.38.86 2.38.86h20.58c.86 0 1.98-.42 2.91-1.56.93-1.14.88-2.63.88-2.63Z"/></mask><path d="M29.15 26.82V8.16c0-.58-.38-.65-.53-.66h-.5c-.5 0-.54.56-.54.74v18.6a2.68 2.68 0 0 1-.82 1.89c-.81.7-1.62.6-1.62.6s-20.18 0-20.66-.03a2.3 2.3 0 0 1-1.6-1c-.57-.8-.46-1.85-.46-1.85V8.3c0-.83-.67-.8-.67-.8h-.3c-.54 0-.6.58-.6.77v18.54c0 1.33.46 2.4 1.55 3.33 1.1.94 2.38.86 2.38.86h20.58c.86 0 1.98-.42 2.91-1.56.93-1.14.88-2.63.88-2.63Z"/><path d="M29.15 26.82h-20v.38l.01.39 19.99-.77ZM28.62 7.5l.71-19.99h-.71v20Zm-1.04.74-20-.15v.15h20Zm0 .06h-20 20Zm0 18.54-19.99-.76v.02l19.99.74Zm-.82 1.89 13.03 15.16.44-.37.4-.4-13.87-14.4Zm-1.62.6L27.4 9.46l-1.13-.13h-1.13v20ZM4.48 29.3l-3.4 19.71 1.14.2 1.15.06L4.48 29.3Zm-1.6-1-16.35 11.52L2.89 28.3Zm-.46-1.85 19.9 2.1.1-1.05v-1.05h-20ZM1.75 7.5v20h.39l.38-.01L1.75 7.5Zm-.9.78-20-.29v.29h20ZM2.4 30.15l-13.02 15.18L2.4 30.15Zm2.38.86V11h-.65l-.64.04L4.78 31Zm23.5-1.56L43.75 42.1 28.28 29.45Zm20.87-2.63V8.16h-40v18.66h40Zm0-18.66a20.54 20.54 0 0 0-19.81-20.64L27.9 27.48A19.46 19.46 0 0 1 9.15 8.16h40ZM28.62-12.5h-.5v40h.5v-40Zm-.5 0A20.47 20.47 0 0 0 9.42-.38c-1.8 4-1.83 7.56-1.84 8.47l40 .3c0 .73-.02 3.91-1.67 7.6a19.47 19.47 0 0 1-17.8 11.51v-40ZM7.58 8.24v.05h40v-.04h-40Zm0 .05v.01h40-40Zm0 .02v10.51a8367.03 8367.03 0 0 1 0 7.25c0 .79 0 .45.01.01l39.97 1.52c.02-.51.02-1.37.02-1.45a1362.33 1362.33 0 0 0 0-7.34V8.3l-40 .02Zm.01 17.79c.05-1.35.38-7.05 5.28-11.77l27.77 28.8a22.68 22.68 0 0 0 6.92-15.54L7.6 26.09Zm6.13-12.54a17.51 17.51 0 0 1 12.43-4.2 19.23 19.23 0 0 1 1.17.1h.06s.02 0-2.24 19.87a2063.4 2063.4 0 0 0-2.24 19.88h.05a14.8 14.8 0 0 0 1.25.1 21.38 21.38 0 0 0 5.56-.45A22.49 22.49 0 0 0 39.8 43.9L13.72 13.56Zm11.42 15.77v-20h-.87A17598.02 17598.02 0 0 1 5.6 9.31c-1.07 0-.61 0 0 .03L3.38 49.27c.97.06 7.17.06 11.6.06h10.16v-20ZM7.88 9.6c.43.08 2.52.43 4.93 1.66 2.57 1.3 4.78 3.2 6.4 5.51l-32.67 23.07c5 7.08 11.87 8.72 14.55 9.18L7.88 9.6Zm11.34 7.18a17.34 17.34 0 0 1 3.13 11.4 18.52 18.52 0 0 1-.03.28v.08c0 .01 0 .02-19.9-2.08l-19.89-2.09v.01a19.73 19.73 0 0 0-.11 1.97 22.66 22.66 0 0 0 4.12 13.48l32.68-23.05Zm3.2 9.68V8.3h-40v18.14h40Zm0-18.14A20.74 20.74 0 0 0 2.78-12.47a20.44 20.44 0 0 0-1.76-.01H1c-.01 0-.03 0 .75 19.98.77 19.99.76 19.99.75 19.99h-.07a28.57 28.57 0 0 1-1.65-.01 19.35 19.35 0 0 1-16-10.04 19.03 19.03 0 0 1-2.36-9.13h40ZM1.75-12.49h-.3v40h.3v-40Zm-.3 0A20.52 20.52 0 0 0-17.18-.66 21.17 21.17 0 0 0-19.14 8l40 .58c-.02.76-.05 4-1.8 7.72A19.44 19.44 0 0 1 1.45 27.5v-40Zm-20.6 20.77v18.54h40V8.28h-40Zm0 18.54c0 7.06 2.92 13.7 8.53 18.51l26.05-30.35a15.63 15.63 0 0 1 4 5.37 15.72 15.72 0 0 1 1.42 6.47h-40Zm8.53 18.51a23.59 23.59 0 0 0 16.56 5.65H6l.03-.01h.01c.01 0 .02 0-1.26-19.96C3.49 11.05 3.5 11.05 3.5 11.05h.04A429.61 429.61 0 0 1 4.5 11a17.44 17.44 0 0 1 3.65.36c1.88.4 4.64 1.34 7.29 3.6l-26.05 30.36Zm15.4-14.32v20h20.63l-.1-40H4.77v20ZM25.4 51c7.1-.02 13.8-3.34 18.35-8.9L12.8 16.8A16.17 16.17 0 0 1 25.3 11l.11 40Zm18.36-8.91a23.97 23.97 0 0 0 5.38-15.11 21.8 21.8 0 0 0-.02-.94l-19.98.77-19.99.76v-.04a18.38 18.38 0 0 1 .01-1.62 16.04 16.04 0 0 1 3.6-9.11l31 25.29Z" mask="url(#b)"/></g><defs><clipPath id="a"><path fill="inherit" transform="translate(.5)" d="M0 0h29v31H0z"/></clipPath></defs></svg>
  </symbol>

  <symbol id="diner">
  <svg viewBox="0 0 26 30" fill="inherit" xmlns="http://www.w3.org/2000/svg"><path fill-rule="evenodd" clip-rule="evenodd" d="M19.117.076a1 1 0 0 1 1.09.217c.909.908 2.097 2.878 3.059 5.918C24.237 9.28 25 13.508 25 19a1 1 0 0 1-1 1h-3.5v9a1 1 0 1 1-2 0V1a1 1 0 0 1 .617-.924ZM20.5 18h2.491c-.086-4.816-.786-8.512-1.632-11.186-.278-.88-.57-1.643-.859-2.295V18ZM6.5 0a1 1 0 0 1 1 1v28a1 1 0 1 1-2 0V1a1 1 0 0 1 1-1Z" fill="inherit"/><path fill-rule="evenodd" clip-rule="evenodd" d="M2 0a1 1 0 0 1 1 1v5.5c0 .557.192 1.315.7 1.917.48.566 1.314 1.083 2.8 1.083a1 1 0 1 1 0 2c-2.015 0-3.43-.733-4.326-1.792A5.068 5.068 0 0 1 1 6.5V1a1 1 0 0 1 1-1Z" fill="inherit"/><path fill-rule="evenodd" clip-rule="evenodd" d="M11 0a1 1 0 0 0-1 1v5.5a3.07 3.07 0 0 1-.7 1.917C8.82 8.983 7.984 9.5 6.5 9.5a1 1 0 0 0 0 2c2.014 0 3.43-.733 4.326-1.792A5.068 5.068 0 0 0 12 6.5V1a1 1 0 0 0-1-1Z" fill="inherit"/></svg>
  </symbol>

  <symbol id="time">

<svg viewBox="0 0 32 33" fill="inherit" xmlns="http://www.w3.org/2000/svg"><circle cx="21.2" cy="11.33" fill="inherit" r="1.09"/><circle cx="10.33" cy="11.33" fill="inherit" r="1.09"/><circle cx="10.33" cy="24.35" fill="inherit" r="1.09"/><circle cx="15.77" cy="26.52" fill="inherit" r="1.09"/><circle cx="7.07" cy="17.77" fill="inherit" r="1.09"/><circle cx="24.47" cy="17.77" fill="inherit" r="1.09"/><circle cx="21.2" cy="24.35" fill="inherit" r="1.09"/><mask id="a" fill="inherit"><path fill-rule="evenodd" clip-rule="evenodd" d="M20.92 29.06c.41-.2.9-.13 1.22.2l1.82 1.87a.68.68 0 0 0 .98-.95l-1.36-1.4c-.42-.43-.36-1.14.1-1.55A12.75 12.75 0 0 0 28 17.61C28 10.65 22.52 5 15.77 5 9 5 3.54 10.65 3.54 17.61c0 3.82 1.64 7.24 4.23 9.55.45.4.51 1.11.1 1.55l-1.44 1.47a.68.68 0 1 0 .97.95l1.88-1.93c.32-.33.82-.4 1.23-.2a11.88 11.88 0 0 0 10.41.06Zm-5.15-.23c6 0 10.87-5.02 10.87-11.22 0-6.19-4.87-11.2-10.87-11.2-6 0-10.88 5.01-10.88 11.2 0 6.2 4.87 11.22 10.88 11.22ZM15 17.3V9.94a.78.78 0 1 1 1.56 0v8.18a.8.8 0 0 1-.8.8.76.76 0 0 1-.76-.75V17.3Z"/></mask><path fill-rule="evenodd" clip-rule="evenodd" d="M20.92 29.06c.41-.2.9-.13 1.22.2l1.82 1.87a.68.68 0 0 0 .98-.95l-1.36-1.4c-.42-.43-.36-1.14.1-1.55A12.75 12.75 0 0 0 28 17.61C28 10.65 22.52 5 15.77 5 9 5 3.54 10.65 3.54 17.61c0 3.82 1.64 7.24 4.23 9.55.45.4.51 1.11.1 1.55l-1.44 1.47a.68.68 0 1 0 .97.95l1.88-1.93c.32-.33.82-.4 1.23-.2a11.88 11.88 0 0 0 10.41.06Zm-5.15-.23c6 0 10.87-5.02 10.87-11.22 0-6.19-4.87-11.2-10.87-11.2-6 0-10.88 5.01-10.88 11.2 0 6.2 4.87 11.22 10.88 11.22ZM15 17.3V9.94a.78.78 0 1 1 1.56 0v8.18a.8.8 0 0 1-.8.8.76.76 0 0 1-.76-.75V17.3Z" fill="inherit"/><path d="m9.28 29.2 2.87 2.79-2.87-2.8Zm1.23-.2 1.77-3.58L10.5 29Zm-3.1 2.13-2.87-2.8 2.86 2.8Zm-.98-.95 2.86 2.79-2.86-2.8Zm17.15-1.4-2.86 2.8 2.86-2.8Zm.1-1.55-2.63-3 2.63 3Zm-15.9-.07L5.1 30.15l2.66-2.99Zm.08 1.55L5 25.9l2.86 2.8Zm17.08 1.47 2.87-2.8-2.87 2.8Zm-.98.95 2.87-2.8-2.87 2.8Zm-1.82-1.88-2.87 2.8 2.87-2.8Zm-1.22-.2-1.73-3.6 1.73 3.6Zm-1.65 3 1.83 1.87 5.73-5.58L25 26.46l-5.73 5.58Zm8.54-4.66-1.36-1.4-5.73 5.59 1.36 1.39 5.73-5.58Zm-1.5 2.85A16.75 16.75 0 0 0 32 17.61h-8a8.75 8.75 0 0 1-2.95 6.61l5.27 6.02ZM32 17.61C32 8.56 24.85 1 15.77 1v8C20.2 9 24 12.74 24 17.61h8ZM15.77 1C6.69 1-.46 8.56-.46 17.61h8c0-4.87 3.8-8.61 8.23-8.61V1ZM-.46 17.61c0 4.98 2.14 9.48 5.57 12.54l5.32-5.97a8.75 8.75 0 0 1-2.9-6.57h-8ZM5 25.91 3.56 27.4l5.73 5.58 1.44-1.47L5 25.9Zm5.27 8.01 1.88-1.93-5.73-5.58-1.88 1.93 5.73 5.58ZM8.75 32.6a15.88 15.88 0 0 0 7.02 1.63v-8a7.88 7.88 0 0 1-3.5-.81L8.76 32.6Zm7.02 1.63c2.45 0 4.79-.56 6.88-1.57l-3.46-7.2c-1.04.5-2.2.77-3.42.77v8Zm0-1.4c8.33 0 14.87-6.93 14.87-15.22h-8c0 4.1-3.2 7.22-6.87 7.22v8ZM30.64 17.6c0-8.28-6.54-15.2-14.87-15.2v8c3.68 0 6.87 3.1 6.87 7.2h8ZM15.77 2.41C7.44 2.4.89 9.32.89 17.6h8c0-4.1 3.2-7.2 6.88-7.2v-8ZM.89 17.6c0 8.29 6.55 15.22 14.88 15.22v-8c-3.68 0-6.88-3.11-6.88-7.22h-8Zm11.68-.31v.54h8v-.54h-8Zm0 .54v.28h8v-.28h-8Zm6.44.33v-.33h-8v.33h8Zm0-.33v-.54h-8v.54h8Zm0-.54v-3.8h-8v3.8h8Zm0-3.8V9.94h-8v3.56h8Zm-6.44-3.56v3.56h8V9.94h-8Zm0 3.56v3.8h8v-3.8h-8Zm3.22-8.34A4.78 4.78 0 0 0 11 9.94h8a3.22 3.22 0 0 1-3.22 3.22v-8Zm-3.22 12.96a3.2 3.2 0 0 1 3.2-3.2v8a4.8 4.8 0 0 0 4.8-4.8h-8ZM12.15 32c-1 1.02-2.4 1.1-3.4.6l3.53-7.17a5.06 5.06 0 0 0-5.86.99l5.73 5.58Zm-8.59 1.93a4.68 4.68 0 0 0 6.71 0l-5.73-5.58a3.32 3.32 0 0 1 4.75 0l-5.73 5.58Zm0-6.53a4.68 4.68 0 0 0 0 6.53l5.73-5.58a3.32 3.32 0 0 1 0 4.63l-5.73-5.58Zm22.89-1.4a2.93 2.93 0 0 1-.13 4.25l-5.27-6.02a5.08 5.08 0 0 0-.33 7.36l5.73-5.59ZM15.79 13.16a3.22 3.22 0 0 1-3.22-3.22h8a4.78 4.78 0 0 0-4.78-4.78v8ZM5.11 30.15A2.93 2.93 0 0 1 5 25.9l5.73 5.59a5.07 5.07 0 0 0-.3-7.32l-5.32 5.97Zm22.7 3.77a4.68 4.68 0 0 0 0-6.53l-5.73 5.58a3.32 3.32 0 0 1 0-4.63l5.73 5.58Zm-6.71 0a4.68 4.68 0 0 0 6.7 0l-5.72-5.58a3.32 3.32 0 0 1 4.75 0l-5.73 5.58Zm-5.33-19A3.24 3.24 0 0 1 19 18.18h-8a4.76 4.76 0 0 0 4.76 4.76v-8ZM25 26.47a5.06 5.06 0 0 0-5.8-1l3.45 7.2c-1 .49-2.4.4-3.38-.62L25 26.46Z" fill="inherit" mask="url(#a)"/><path fill="inherit" d="M15 6V2h1.5v4z"/><rect x="8" y="2" width="15.5" height="1.5" rx=".75" fill="inherit"/></svg>
  </symbol>

</svg>
